<svg xmlns="http://www.w3.org/2000/svg" viewBox="0 0 128 128">
  <defs>
    <linearGradient id="solflareGradient" x1="0%" y1="0%" x2="100%" y2="100%">
      <stop offset="0%" stop-color="#FE9A33" />
      <stop offset="100%" stop-color="#FE641A" />
    </linearGradient>
    <filter id="flameGlow" x="-50%" y="-50%" width="200%" height="200%">
      <feGaussianBlur stdDeviation="3" result="blur" />
      <feComposite in="SourceGraphic" in2="blur" operator="over" />
    </filter>
  </defs>
  
  <!-- Background -->
  <rect width="128" height="128" rx="32" fill="#101010" />
  
  <!-- Flame shape -->
  <path d="M64 24 C60 40, 40 50, 40 70 C40 90, 50 104, 64 104 C78 104, 88 90, 88 70 C88 50, 68 40, 64 24 Z"
        fill="url(#solflareGradient)" filter="url(#flameGlow)" />
  
  <!-- Inner flame -->
  <path d="M64 44 C62 52, 52 58, 52 70 C52 82, 58 88, 64 88 C70 88, 76 82, 76 70 C76 58, 66 52, 64 44 Z"
        fill="#ffffff" opacity="0.8" />
</svg> 